<svg width="22" height="22" viewBox="0 0 22 22" fill="none"
  xmlns="http://www.w3.org/2000/svg">
  <path fill-rule="evenodd" clip-rule="evenodd" d="M16.8674 14C16.5076 14 16.1809 14.1973 15.9737 14.4915C14.8976 16.0194 13.1377 17 11.1858 17C7.985 17 5.30078 14.3634 5.30078 11C5.30078 7.63662 7.985 5 11.1858 5C13.1377 5 14.8976 5.98055 15.9737 7.50851C16.1809 7.8027 16.5076 8 16.8674 8H20.3428C21.0049 8 21.484 7.36637 21.2305 6.75467C19.5867 2.78726 15.7083 0 11.1858 0C5.17417 0 0.300781 4.92487 0.300781 11C0.300781 17.0751 5.17417 22 11.1858 22C15.7083 22 19.5867 19.2127 21.2305 15.2453C21.484 14.6336 21.0049 14 20.3428 14H16.8674Z" fill="white"/>
</svg>
