<?xml version="1.0" standalone="no"?>
<!DOCTYPE svg PUBLIC "-//W3C//DTD SVG 20010904//EN"
 "http://www.w3.org/TR/2001/REC-SVG-20010904/DTD/svg10.dtd">
<svg version="1.0" xmlns="http://www.w3.org/2000/svg"
 width="255.000000pt" height="256.000000pt" viewBox="0 0 255.000000 256.000000"
 preserveAspectRatio="xMidYMid meet">

<g transform="translate(0.000000,256.000000) scale(0.100000,-0.100000)"
fill="#000000" stroke="none">
<path d="M2418 2544 c6 -3 12 -14 12 -24 0 -10 11 -25 25 -34 23 -15 25 -23
25 -90 0 -92 -12 -105 -96 -107 -32 -1 -49 -4 -36 -6 22 -4 23 -6 7 -23 -15
-16 -17 -72 -22 -527 l-6 -509 -162 -92 c-137 -78 -168 -92 -206 -92 -40 0
-50 5 -92 48 -45 46 -47 50 -47 105 0 46 4 59 18 64 106 36 218 123 269 211
42 71 63 155 63 248 0 420 -495 629 -801 338 -137 -132 -181 -326 -115 -509
l24 -65 -67 0 c-65 0 -67 1 -86 32 -125 213 -406 289 -634 173 -114 -57 -214
-192 -242 -323 -15 -75 -6 -203 19 -269 l20 -52 -25 16 c-21 14 -26 14 -34 2
-10 -17 -9 -55 -18 616 -6 515 -7 520 -29 555 -27 42 -27 47 -4 53 9 3 -6 5
-34 6 -71 1 -84 18 -84 109 0 61 3 74 20 84 21 13 28 58 9 58 -24 0 -50 -23
-69 -60 -20 -39 -20 -54 -18 -1225 l3 -1185 33 -32 32 -33 1190 -3 c1316 -3
1229 -7 1271 61 19 31 19 54 17 1212 -3 1105 -4 1182 -21 1212 -20 37 -37 48
-87 57 -19 3 -29 3 -22 0z m-534 -412 c88 -41 178 -127 215 -206 40 -84 47
-116 23 -116 -10 0 -23 -5 -30 -12 -9 -9 -12 -9 -12 2 0 48 -108 215 -134 208
-7 -2 -52 -48 -101 -103 -130 -147 -120 -131 -105 -159 7 -15 9 -32 5 -43 -8
-17 -8 -17 -13 2 -5 26 -31 55 -49 55 -27 0 -53 -38 -48 -72 l5 -33 -15 33
-15 32 -150 0 -150 0 0 -38 c0 -20 4 -52 9 -70 9 -30 8 -32 -15 -32 -13 0 -24
-6 -24 -12 -1 -32 -20 22 -30 84 -29 169 54 354 200 448 84 54 150 71 266 67
88 -3 109 -8 168 -35z m-972 -455 c110 -54 202 -158 233 -264 6 -22 5 -22
-133 -25 l-139 -3 61 68 c34 37 62 72 64 77 5 14 -87 78 -142 99 -29 11 -80
21 -112 23 l-59 3 3 -140 3 -140 -42 1 c-39 1 -48 7 -122 83 -74 75 -107 97
-107 70 0 -6 -11 -25 -24 -42 -14 -18 -33 -50 -43 -72 -15 -33 -23 -40 -46
-40 -25 -1 -27 2 -22 25 31 128 140 244 280 297 51 20 76 23 166 20 99 -2 110
-4 181 -40z m-72 -64 c48 -17 130 -69 130 -82 0 -4 -11 -17 -23 -29 l-24 -22
-26 20 c-36 28 -103 57 -154 65 -41 6 -43 8 -43 41 l0 35 48 -6 c26 -3 67 -13
92 -22z m-372 -160 c-30 -35 -60 -106 -65 -159 -5 -48 -8 -54 -29 -54 -21 0
-24 5 -24 39 0 55 33 155 65 197 l28 36 20 -21 c19 -19 19 -22 5 -38z m-198
-1232 c5 -11 10 -45 10 -75 0 -76 -20 -96 -96 -96 -87 0 -94 7 -94 99 0 43 3
81 7 84 3 4 41 7 84 7 67 0 80 -3 89 -19z m368 -66 c4 -96 -4 -105 -90 -105
-78 0 -98 19 -98 96 0 89 7 95 103 92 l82 -3 3 -80z m370 0 c4 -96 -4 -105
-90 -105 -78 0 -98 19 -98 96 0 89 7 95 103 92 l82 -3 3 -80z m370 0 c4 -95
-4 -105 -88 -105 -84 0 -100 15 -100 99 0 40 5 72 12 79 9 9 39 12 93 10 l80
-3 3 -80z m370 -3 c3 -81 2 -82 -23 -92 -40 -15 -118 -12 -143 6 -19 13 -22
24 -22 83 0 40 5 72 12 79 9 9 39 12 93 10 l80 -3 3 -83z m366 72 c9 -25 7
-137 -4 -154 -7 -11 -29 -15 -85 -15 -56 0 -78 4 -85 15 -14 22 -12 144 2 158
7 7 42 12 89 12 61 0 78 -3 83 -16z m370 0 c9 -25 7 -137 -4 -154 -7 -11 -29
-15 -85 -15 -90 0 -95 4 -95 92 0 94 -1 93 95 93 66 0 84 -3 89 -16z"/>
<path d="M1624 2095 c-78 -17 -128 -43 -188 -97 l-48 -43 89 -79 c48 -44 100
-91 115 -104 26 -24 26 -24 67 -6 l41 18 0 157 c0 87 -3 160 -7 162 -5 2 -36
-1 -69 -8z"/>
</g>
</svg>
